# xmcd CD database file
#
# Track frame offsets:
#	187
#	15560
#	34055
#	56377
#	74602
#	91055
#	103302
#	126367
#	142780
#	157582
#
# Disc length: 2396 seconds
#
# Revision: 1
# Processed by: cddbd v1.5.1PL0 Copyright (c) Steve Scherf et al.
# Submitted via: CDex 1.51
#
DISCID=79095a0a
DTITLE=The Purple Outside - Mystical Lane
DYEAR=1990
DGENRE=Rock
TTITLE0=When I'm Gone
TTITLE1=The Velvet Doorway
TTITLE2=White Plastic
TTITLE3=Turtle
TTITLE4=Combination Of The Three
TTITLE5=After The Springtime
TTITLE6=Illumination
TTITLE7=Silver Castle
TTITLE8=Said Tomorrow
TTITLE9=Strange Day's Flight
EXTD=YEAR: 1990
EXTT0=
EXTT1=
EXTT2=
EXTT3=
EXTT4=
EXTT5=
EXTT6=
EXTT7=
EXTT8=
EXTT9=
PLAYORDER=
